<svg xmlns="http://www.w3.org/2000/svg" viewBox="0 0 434.47 46.92"><defs><style>.cls-1{fill:#12cc5e;}.cls-2{fill:#a8eec1;}</style></defs><g id="Layer_2" data-name="Layer 2"><g id="Layer_1-2" data-name="Layer 1"><path class="cls-1" d="M42.3,33.19A18.35,18.35,0,0,1,38.09,41a17.29,17.29,0,0,1-6.9,4.49,26.42,26.42,0,0,1-8.83,1.41,24.28,24.28,0,0,1-11.94-2.79,18.81,18.81,0,0,1-7.73-8A27.45,27.45,0,0,1,0,23.46,27.45,27.45,0,0,1,2.69,10.83a18.81,18.81,0,0,1,7.73-8A24.11,24.11,0,0,1,22.29,0a27.27,27.27,0,0,1,8.76,1.35,17,17,0,0,1,6.76,4.1,15.63,15.63,0,0,1,3.94,7.11L31.33,16.77c-.65-2.85-1.69-4.81-3.14-5.87A9.06,9.06,0,0,0,22.7,9.31a9.86,9.86,0,0,0-5.62,1.59,10,10,0,0,0-3.66,4.73,20.89,20.89,0,0,0-1.28,7.83,22.47,22.47,0,0,0,1.18,7.8A9.43,9.43,0,0,0,16.87,36a10.39,10.39,0,0,0,5.9,1.58,8.76,8.76,0,0,0,5.62-1.82,9.45,9.45,0,0,0,3.14-5.63Z"/><path class="cls-1" d="M88.46,46.23H76.25L73.07,36H57.48L54.23,46.23H42.3L58.31.69H72.52ZM59.69,27.88H70.86L65.27,9.45Z"/><path class="cls-1" d="M103.77,37.05h22.84v9.18H91.91V.69h11.86Z"/><path class="cls-1" d="M170.5,33.19A18.35,18.35,0,0,1,166.29,41a17.29,17.29,0,0,1-6.9,4.49,26.42,26.42,0,0,1-8.83,1.41,24.28,24.28,0,0,1-11.94-2.79,18.87,18.87,0,0,1-7.73-8,27.45,27.45,0,0,1-2.69-12.63,27.45,27.45,0,0,1,2.69-12.63,18.87,18.87,0,0,1,7.73-8A24.11,24.11,0,0,1,150.49,0a27.27,27.27,0,0,1,8.76,1.35A17,17,0,0,1,166,5.45,15.63,15.63,0,0,1,170,12.56l-10.42,4.21c-.65-2.85-1.69-4.81-3.14-5.87a9.06,9.06,0,0,0-5.49-1.59,9.89,9.89,0,0,0-5.62,1.59,10,10,0,0,0-3.66,4.73,20.89,20.89,0,0,0-1.28,7.83,22.47,22.47,0,0,0,1.18,7.8A9.43,9.43,0,0,0,145.07,36,10.39,10.39,0,0,0,151,37.6a8.76,8.76,0,0,0,5.62-1.82,9.45,9.45,0,0,0,3.14-5.63Z"/><path class="cls-2" d="M215.07.69v27q0,9.66-5.14,14.45t-15.21,4.8q-10,0-15.18-4.8t-5.18-14.45V.69H186.3V27.88q0,4.89,2.1,7.31c1.41,1.61,3.51,2.41,6.32,2.41s5-.8,6.38-2.41,2.1-4,2.1-7.31V.69Z"/><path class="cls-2" d="M234.25,37.05h22.84v9.18h-34.7V.69h11.86Z"/><path class="cls-2" d="M303.46,46.23H291.25L288.07,36H272.48l-3.24,10.28H257.3l16-45.54h14.21ZM274.69,27.88h11.17L280.28,9.45Z"/><path class="cls-2" d="M339.48.69V9.87H324.64V46.23H312.77V9.87h-14.9V.69Z"/><path class="cls-2" d="M362.94,0a24.07,24.07,0,0,1,11.9,2.79,18.9,18.9,0,0,1,7.69,8,27.33,27.33,0,0,1,2.69,12.63,27.33,27.33,0,0,1-2.69,12.63,18.9,18.9,0,0,1-7.69,8,26.86,26.86,0,0,1-23.84,0,18.87,18.87,0,0,1-7.73-8,27.45,27.45,0,0,1-2.69-12.63,27.45,27.45,0,0,1,2.69-12.63,18.87,18.87,0,0,1,7.73-8A24.28,24.28,0,0,1,362.94,0Zm0,9.31a9.52,9.52,0,0,0-5.59,1.59,9.69,9.69,0,0,0-3.45,4.73,22.59,22.59,0,0,0-1.17,7.83,22.72,22.72,0,0,0,1.17,7.8A9.68,9.68,0,0,0,357.35,36a9.52,9.52,0,0,0,5.59,1.58A9.33,9.33,0,0,0,368.49,36a9.82,9.82,0,0,0,3.42-4.76,22.72,22.72,0,0,0,1.17-7.8,22.59,22.59,0,0,0-1.17-7.83,9.83,9.83,0,0,0-3.42-4.73A9.33,9.33,0,0,0,362.94,9.31Z"/><circle class="cls-1" cx="426.97" cy="39.41" r="7.5"/><path class="cls-2" d="M416.51,40.26c0-.28,0-.56,0-.85a10.49,10.49,0,0,1,6.09-9.52l-1.32-2.06a14.63,14.63,0,0,0,4.69-2.51c3-2.43,4.49-6,4.49-10.62A12.69,12.69,0,0,0,425.9,4.52Q421.39.69,413.24.69H391.5V46.23h11.66V29.6h7.12ZM403.16,9.66h8.42A8.19,8.19,0,0,1,416.76,11a5.24,5.24,0,0,1,1.72,4.35,5.31,5.31,0,0,1-1.72,4.41,8.19,8.19,0,0,1-5.18,1.38h-8.42Z"/></g></g></svg>