<svg xmlns="http://www.w3.org/2000/svg" viewBox="0 0 44.47 46.92"><defs><style>.cls-1{fill:#a8eec1;}.cls-2{fill:#12cc5e;}</style></defs><g id="Layer_2" data-name="Layer 2"><g id="Layer_1-2" data-name="Layer 1"><circle class="cls-1" cx="36.97" cy="39.41" r="7.5"/><path class="cls-2" d="M25.47,39.41a11.61,11.61,0,0,1,.22-2.22,10.1,10.1,0,0,1-2.92.41A10.39,10.39,0,0,1,16.87,36a9.43,9.43,0,0,1-3.55-4.76,22.47,22.47,0,0,1-1.18-7.8,20.89,20.89,0,0,1,1.28-7.83,10,10,0,0,1,3.66-4.73A9.86,9.86,0,0,1,22.7,9.31a9.06,9.06,0,0,1,5.49,1.59c1.45,1.06,2.49,3,3.14,5.87l10.42-4.21a15.63,15.63,0,0,0-3.94-7.11,17,17,0,0,0-6.76-4.1A27.27,27.27,0,0,0,22.29,0,24.11,24.11,0,0,0,10.42,2.79a18.81,18.81,0,0,0-7.73,8A27.45,27.45,0,0,0,0,23.46,27.45,27.45,0,0,0,2.69,36.09a18.81,18.81,0,0,0,7.73,8,24.28,24.28,0,0,0,11.94,2.79,28.3,28.3,0,0,0,5.48-.53A11.46,11.46,0,0,1,25.47,39.41Z"/></g></g></svg>