<?xml version="1.0" encoding="utf-8"?>
<!-- Generator: Adobe Illustrator 26.0.1, SVG Export Plug-In . SVG Version: 6.00 Build 0)  -->
<svg version="1.1" id="Layer_1" xmlns="http://www.w3.org/2000/svg" xmlns:xlink="http://www.w3.org/1999/xlink" x="0px" y="0px"
	 viewBox="0 0 434.5 46.9" style="enable-background:new 0 0 434.5 46.9;" xml:space="preserve">
<style type="text/css">
	.st0{fill:#12CC5E;}
	.st1{fill:#2F3030;}
</style>
<path class="st0" d="M42.3,33.2c-0.7,2.9-2.2,5.6-4.2,7.8c-1.9,2-4.3,3.6-6.9,4.5c-2.8,1-5.8,1.4-8.8,1.4c-4.2,0.1-8.3-0.9-11.9-2.8
	c-3.3-1.8-6-4.6-7.7-8C0.8,32.2-0.1,27.8,0,23.5c-0.1-4.4,0.8-8.7,2.7-12.6c1.7-3.4,4.4-6.2,7.7-8c3.6-1.9,7.7-2.9,11.9-2.8
	c3,0,5.9,0.4,8.8,1.4c2.5,0.8,4.9,2.2,6.8,4.1c1.9,2,3.3,4.4,3.9,7.1l-10.4,4.2c-0.6-2.9-1.7-4.8-3.1-5.9c-1.6-1.1-3.5-1.7-5.5-1.6
	c-2,0-4,0.5-5.6,1.6c-1.7,1.2-3,2.8-3.7,4.7c-0.9,2.5-1.4,5.2-1.3,7.8c-0.1,2.6,0.3,5.3,1.2,7.8c0.6,1.9,1.9,3.6,3.5,4.7
	c1.8,1.1,3.8,1.7,5.9,1.6c2,0.1,4-0.6,5.6-1.8c1.7-1.5,2.8-3.4,3.1-5.6L42.3,33.2z"/>
<path class="st0" d="M88.5,46.2H76.2L73.1,36H57.5l-3.2,10.2H42.3l16-45.5h14.2L88.5,46.2z M59.7,27.9h11.2L65.3,9.4L59.7,27.9z"/>
<path class="st0" d="M103.8,37h22.8v9.2H91.9V0.7h11.9L103.8,37z"/>
<path class="st0" d="M170.5,33.2c-0.7,2.9-2.2,5.6-4.2,7.8c-1.9,2-4.3,3.6-6.9,4.5c-2.8,1-5.8,1.4-8.8,1.4
	c-4.2,0.1-8.3-0.9-11.9-2.8c-3.3-1.8-6-4.6-7.7-8c-1.9-3.9-2.8-8.3-2.7-12.6c-0.1-4.4,0.8-8.7,2.7-12.6c1.7-3.4,4.4-6.2,7.7-8
	c3.6-2,7.7-2.9,11.9-2.8c3,0,5.9,0.4,8.8,1.4c2.5,0.8,4.9,2.2,6.8,4.1c1.9,2,3.3,4.4,4,7.1l-10.4,4.2c-0.6-2.9-1.7-4.8-3.1-5.9
	c-1.6-1.1-3.5-1.7-5.5-1.6c-2,0-3.9,0.5-5.6,1.6c-1.7,1.2-3,2.8-3.7,4.7c-0.9,2.5-1.4,5.2-1.3,7.8c-0.1,2.6,0.3,5.3,1.2,7.8
	c0.6,1.9,1.9,3.6,3.5,4.7c1.8,1.1,3.8,1.7,5.9,1.6c2,0.1,4-0.6,5.6-1.8c1.7-1.5,2.8-3.4,3.1-5.6L170.5,33.2z"/>
<path class="st1" d="M215.1,0.7v27c0,6.4-1.7,11.3-5.1,14.4s-8.5,4.8-15.2,4.8c-6.7,0-11.7-1.6-15.2-4.8c-3.5-3.2-5.2-8-5.2-14.5
	v-27h11.9v27.2c0,3.3,0.7,5.7,2.1,7.3c1.4,1.6,3.5,2.4,6.3,2.4s5-0.8,6.4-2.4s2.1-4,2.1-7.3V0.7H215.1z"/>
<path class="st1" d="M234.2,37h22.8v9.2h-34.7V0.7h11.9V37z"/>
<path class="st1" d="M303.5,46.2h-12.2L288.1,36h-15.6l-3.2,10.3h-11.9l16-45.5h14.2L303.5,46.2z M274.7,27.9h11.2l-5.6-18.4
	L274.7,27.9z"/>
<path class="st1" d="M339.5,0.7v9.2h-14.8v36.4h-11.9V9.9h-14.9V0.7H339.5z"/>
<path class="st1" d="M362.9,0c4.1-0.1,8.2,0.9,11.9,2.8c3.3,1.8,6,4.6,7.7,8c1.9,3.9,2.8,8.3,2.7,12.6c0.1,4.4-0.8,8.7-2.7,12.6
	c-1.7,3.4-4.4,6.2-7.7,8c-7.5,3.7-16.3,3.7-23.8,0c-3.3-1.8-6-4.6-7.7-8c-1.9-3.9-2.8-8.3-2.7-12.6c-0.1-4.4,0.8-8.7,2.7-12.6
	c1.7-3.4,4.4-6.2,7.7-8C354.7,0.9,358.8-0.1,362.9,0z M362.9,9.3c-2-0.1-3.9,0.5-5.6,1.6c-1.6,1.2-2.8,2.8-3.5,4.7
	c-0.8,2.5-1.2,5.2-1.2,7.8c-0.1,2.6,0.3,5.3,1.2,7.8c0.6,1.9,1.8,3.6,3.5,4.7c1.7,1.1,3.6,1.6,5.6,1.6c2,0.1,3.9-0.5,5.5-1.6
	c1.6-1.2,2.8-2.9,3.4-4.8c0.8-2.5,1.2-5.2,1.2-7.8c0.1-2.7-0.3-5.3-1.2-7.8c-0.6-1.9-1.8-3.5-3.4-4.7C366.9,9.8,364.9,9.2,362.9,9.3
	z"/>
<circle class="st0" cx="427" cy="39.4" r="7.5"/>
<path class="st1" d="M416.5,40.3c0-0.3,0-0.6,0-0.8c0-4.1,2.4-7.8,6.1-9.5l-1.3-2.1c1.7-0.5,3.3-1.4,4.7-2.5c3-2.4,4.5-6,4.5-10.6
	c0.1-3.9-1.6-7.7-4.6-10.2c-3-2.6-7.2-3.8-12.7-3.8h-21.7v45.5h11.7V29.6h7.1L416.5,40.3z M403.2,9.7h8.4c1.8-0.1,3.7,0.3,5.2,1.3
	c1.2,1.1,1.9,2.7,1.7,4.4c0.1,1.7-0.5,3.3-1.7,4.4c-1.5,1-3.3,1.5-5.2,1.4h-8.4V9.7z"/>
</svg>
